{
	"asset":{
		"generator":"Khronos glTF Blender I/O v5.0.21",
		"version":"2.0"
	},
	"scene":0,
	"scenes":[
		{
			"name":"Scene",
			"nodes":[
				31
			]
		}
	],
	"nodes":[
		{
			"name":"spine.006",
			"rotation":[
				-0.3939158618450165,
				5.991108081642924e-14,
				-9.391683875037415e-08,
				0.9191464781761169
			],
			"scale":[
				1,
				1,
				0.9999999403953552
			],
			"translation":[
				1.50586880556519e-16,
				0.10055582225322723,
				-7.450580596923828e-09
			]
		},
		{
			"children":[
				0
			],
			"name":"spine.005",
			"rotation":[
				0.12297220528125763,
				1.1830444179850019e-07,
				1.4659423897001034e-08,
				0.9924101233482361
			],
			"translation":[
				-3.0399954051267626e-23,
				0.024037595838308334,
				-4.656612873077393e-10
			]
		},
		{
			"children":[
				1
			],
			"name":"spine.004",
			"rotation":[
				0.2017379254102707,
				-4.016547226651061e-15,
				5.0015000076079376e-15,
				0.9794395565986633
			],
			"scale":[
				1,
				1,
				0.9999999403953552
			],
			"translation":[
				4.340859223361144e-23,
				0.06996509432792664,
				0
			]
		},
		{
			"name":"hand.L",
			"rotation":[
				-0.062370166182518005,
				0.011153279803693295,
				0.05957053229212761,
				0.9962112903594971
			],
			"scale":[
				1,
				1.0000001192092896,
				1.000000238418579
			],
			"translation":[
				-1.7462298274040222e-08,
				0.08373944461345673,
				3.725290298461914e-09
			]
		},
		{
			"children":[
				3
			],
			"name":"forearm.L",
			"rotation":[
				0.174797922372818,
				-0.1373145878314972,
				0.04197578504681587,
				0.9740782380104065
			],
			"scale":[
				0.9999999403953552,
				1,
				0.9999999403953552
			],
			"translation":[
				-2.60770320892334e-08,
				0.12221504002809525,
				-1.30385160446167e-08
			]
		},
		{
			"children":[
				4
			],
			"name":"upper_arm.L",
			"rotation":[
				0.021694393828511238,
				0.7899377942085266,
				-0.019933244213461876,
				0.6124788522720337
			],
			"scale":[
				1,
				1.0000001192092896,
				1
			],
			"translation":[
				0.0025318744592368603,
				0.1541212946176529,
				-0.003630941268056631
			]
		},
		{
			"children":[
				5
			],
			"name":"shoulder.L",
			"rotation":[
				-0.6022115349769592,
				-0.38456931710243225,
				-0.4785442650318146,
				0.5103362798690796
			],
			"translation":[
				0.006648516282439232,
				0.049853384494781494,
				0.028429100289940834
			]
		},
		{
			"name":"hand.R",
			"rotation":[
				-0.062370166182518005,
				-0.011153279803693295,
				-0.05957053229212761,
				0.9962112903594971
			],
			"scale":[
				1,
				1.0000001192092896,
				1.000000238418579
			],
			"translation":[
				1.7462298274040222e-08,
				0.08373944461345673,
				3.725290298461914e-09
			]
		},
		{
			"children":[
				7
			],
			"name":"forearm.R",
			"rotation":[
				0.174797922372818,
				0.1373145878314972,
				-0.04197578504681587,
				0.9740782380104065
			],
			"scale":[
				0.9999999403953552,
				1,
				0.9999999403953552
			],
			"translation":[
				2.60770320892334e-08,
				0.12221504002809525,
				-1.30385160446167e-08
			]
		},
		{
			"children":[
				8
			],
			"name":"upper_arm.R",
			"rotation":[
				0.021694393828511238,
				-0.7899377942085266,
				0.019933244213461876,
				0.6124788522720337
			],
			"scale":[
				1,
				1.0000001192092896,
				1
			],
			"translation":[
				-0.0025318744592368603,
				0.1541212946176529,
				-0.003630941268056631
			]
		},
		{
			"children":[
				9
			],
			"name":"shoulder.R",
			"rotation":[
				-0.6022115349769592,
				0.38456931710243225,
				0.4785442650318146,
				0.5103362798690796
			],
			"translation":[
				-0.006648516282439232,
				0.049853384494781494,
				0.028429100289940834
			]
		},
		{
			"children":[
				2,
				6,
				10
			],
			"name":"spine.003",
			"rotation":[
				0.0016271448694169521,
				-2.4231036780518043e-17,
				4.705274639442539e-17,
				0.9999986886978149
			],
			"scale":[
				1,
				0.9999998807907104,
				0.9999999403953552
			],
			"translation":[
				0,
				0.0628112256526947,
				0
			]
		},
		{
			"children":[
				11
			],
			"name":"spine.002",
			"rotation":[
				-0.03901243954896927,
				-1.3940394554044864e-14,
				-1.6733375159816303e-15,
				0.9992387294769287
			],
			"scale":[
				1,
				1,
				0.9999999403953552
			],
			"translation":[
				-3.639594695233322e-23,
				0.13208217918872833,
				6.402842700481415e-10
			]
		},
		{
			"children":[
				12
			],
			"name":"spine.001",
			"rotation":[
				-0.05157087370753288,
				-1.1905073193929638e-07,
				-6.147734765704627e-09,
				0.9986693263053894
			],
			"scale":[
				1,
				0.9999999403953552,
				0.9999999403953552
			],
			"translation":[
				3.3306690738754696e-16,
				0.09274324774742126,
				-3.725290298461914e-09
			]
		},
		{
			"name":"pelvis.L",
			"rotation":[
				-0.3392510414123535,
				-0.6617569327354431,
				-0.42153748869895935,
				0.5189341902732849
			],
			"scale":[
				1,
				1.0000001192092896,
				1
			],
			"translation":[
				4.440894216082994e-16,
				1.4901161193847656e-08,
				-5.587935447692871e-09
			]
		},
		{
			"name":"pelvis.R",
			"rotation":[
				-0.33925116062164307,
				0.6617568731307983,
				0.4215373396873474,
				0.5189342498779297
			],
			"scale":[
				1.0000001192092896,
				1,
				1
			],
			"translation":[
				4.440894216082994e-16,
				1.4901161193847656e-08,
				-5.587935447692871e-09
			]
		},
		{
			"name":"toe.L",
			"rotation":[
				1.124619828374307e-07,
				0.9230842590332031,
				-0.3845977783203125,
				1.7973113131120044e-07
			],
			"scale":[
				1,
				0.9999998211860657,
				0.9999999403953552
			],
			"translation":[
				-1.083592104933473e-09,
				0.05654660984873772,
				1.5838388378597301e-09
			]
		},
		{
			"name":"heel.02.L",
			"rotation":[
				0.6527191996574402,
				0.6527190804481506,
				-0.27195149660110474,
				0.2719518542289734
			],
			"scale":[
				0.9999998807907104,
				1,
				0.9999998807907104
			],
			"translation":[
				-0.013805678114295006,
				0.02521754428744316,
				0.04020606353878975
			]
		},
		{
			"children":[
				16,
				17
			],
			"name":"foot.L",
			"rotation":[
				-0.43796905875205994,
				1.0429024399627451e-07,
				-1.6253619605777203e-07,
				0.8989900350570679
			],
			"scale":[
				1,
				1,
				1.0000001192092896
			],
			"translation":[
				-2.9645512711340416e-09,
				0.13010945916175842,
				4.722622293229506e-11
			]
		},
		{
			"children":[
				18
			],
			"name":"shin.L",
			"rotation":[
				0.15950581431388855,
				-1.865342085238808e-07,
				1.3442719826173288e-08,
				0.9871969819068909
			],
			"translation":[
				-7.017834313671756e-09,
				0.07689093053340912,
				2.0766961483786872e-09
			]
		},
		{
			"children":[
				19
			],
			"name":"thigh.L",
			"rotation":[
				0.9852127432823181,
				-2.3579147523378197e-08,
				4.2996066440537106e-07,
				0.17133550345897675
			],
			"scale":[
				1,
				0.9999999403953552,
				1.0000014305114746
			],
			"translation":[
				0.11700887233018875,
				0.006933168973773718,
				0.01468106359243393
			]
		},
		{
			"name":"toe.R",
			"rotation":[
				1.0455152477106822e-07,
				-0.9230842590332031,
				0.3845977783203125,
				1.7973113131120044e-07
			],
			"scale":[
				1,
				0.9999998211860657,
				0.9999999403953552
			],
			"translation":[
				1.667024962515029e-09,
				0.05654660984873772,
				-8.230287562582816e-10
			]
		},
		{
			"name":"heel.02.R",
			"rotation":[
				0.6527191996574402,
				-0.6527190804481506,
				0.27195146679878235,
				0.271951824426651
			],
			"scale":[
				0.9999998807907104,
				1,
				0.9999998807907104
			],
			"translation":[
				0.013805678114295006,
				0.02521754428744316,
				0.04020605981349945
			]
		},
		{
			"children":[
				21,
				22
			],
			"name":"foot.R",
			"rotation":[
				-0.43796905875205994,
				-1.1004473066122955e-07,
				1.507244746790093e-07,
				0.8989900350570679
			],
			"scale":[
				1,
				1,
				1.0000001192092896
			],
			"translation":[
				1.002733895916208e-08,
				0.13010945916175842,
				1.7302497212767776e-09
			]
		},
		{
			"children":[
				23
			],
			"name":"shin.R",
			"rotation":[
				0.15950581431388855,
				4.883173687630915e-08,
				-1.0064518818353463e-07,
				0.9871969819068909
			],
			"translation":[
				1.0477879897052844e-08,
				0.07689093053340912,
				-3.844284890419658e-10
			]
		},
		{
			"children":[
				24
			],
			"name":"thigh.R",
			"rotation":[
				0.9852127432823181,
				-1.0527845262231494e-07,
				-3.982595941920408e-08,
				0.17133550345897675
			],
			"scale":[
				1,
				0.9999999403953552,
				1.0000014305114746
			],
			"translation":[
				-0.11700887233018875,
				0.006933168973773718,
				0.014681008644402027
			]
		},
		{
			"children":[
				13,
				14,
				15,
				20,
				25
			],
			"name":"spine",
			"rotation":[
				0.07463765889406204,
				1.188768763427106e-07,
				8.897506731386784e-09,
				0.9972107410430908
			],
			"translation":[
				0,
				0.2460683435201645,
				-0.020054539665579796
			]
		},
		{
			"mesh":0,
			"name":"Blet",
			"skin":0
		},
		{
			"mesh":1,
			"name":"Eyes",
			"skin":0
		},
		{
			"mesh":2,
			"name":"Goblin",
			"skin":0
		},
		{
			"mesh":3,
			"name":"Pant",
			"skin":0
		},
		{
			"children":[
				27,
				28,
				29,
				30,
				26
			],
			"name":"metarig"
		}
	],
	"materials":[
		{
			"doubleSided":true,
			"name":"Material",
			"pbrMetallicRoughness":{
				"baseColorTexture":{
					"index":0
				},
				"metallicFactor":0,
				"roughnessFactor":0.5
			}
		}
	],
	"meshes":[
		{
			"name":"Cube.003",
			"primitives":[
				{
					"attributes":{
						"POSITION":0,
						"NORMAL":1,
						"TEXCOORD_0":2,
						"JOINTS_0":3,
						"WEIGHTS_0":4
					},
					"indices":5,
					"material":0
				}
			]
		},
		{
			"name":"Cube",
			"primitives":[
				{
					"attributes":{
						"POSITION":7,
						"NORMAL":8,
						"TEXCOORD_0":9,
						"JOINTS_0":10,
						"WEIGHTS_0":11
					},
					"indices":12,
					"material":0
				}
			]
		},
		{
			"name":"Cube.001",
			"primitives":[
				{
					"attributes":{
						"POSITION":13,
						"NORMAL":14,
						"TEXCOORD_0":15,
						"JOINTS_0":16,
						"WEIGHTS_0":17
					},
					"indices":18,
					"material":0
				}
			]
		},
		{
			"name":"Cube.002",
			"primitives":[
				{
					"attributes":{
						"POSITION":19,
						"NORMAL":20,
						"TEXCOORD_0":21,
						"JOINTS_0":22,
						"WEIGHTS_0":23
					},
					"indices":24,
					"material":0
				}
			]
		}
	],
	"textures":[
		{
			"sampler":0,
			"source":0
		}
	],
	"images":[
		{
			"mimeType":"image/png",
			"name":"T_Goblin",
			"uri":"T_Goblin.png"
		}
	],
	"skins":[
		{
			"inverseBindMatrices":6,
			"joints":[
				26,
				13,
				12,
				11,
				2,
				1,
				0,
				6,
				5,
				4,
				3,
				10,
				9,
				8,
				7,
				14,
				15,
				20,
				19,
				18,
				16,
				17,
				25,
				24,
				23,
				21,
				22
			],
			"name":"metarig"
		}
	],
	"accessors":[
		{
			"bufferView":0,
			"componentType":5126,
			"count":300,
			"max":[
				0.16168242692947388,
				0.4140087068080902,
				0.09900394082069397
			],
			"min":[
				-0.16168242692947388,
				0.3375498354434967,
				-0.09451445192098618
			],
			"type":"VEC3"
		},
		{
			"bufferView":1,
			"componentType":5126,
			"count":300,
			"type":"VEC3"
		},
		{
			"bufferView":2,
			"componentType":5126,
			"count":300,
			"type":"VEC2"
		},
		{
			"bufferView":3,
			"componentType":5121,
			"count":300,
			"type":"VEC4"
		},
		{
			"bufferView":4,
			"componentType":5126,
			"count":300,
			"type":"VEC4"
		},
		{
			"bufferView":5,
			"componentType":5123,
			"count":480,
			"type":"SCALAR"
		},
		{
			"bufferView":6,
			"componentType":5126,
			"count":27,
			"type":"MAT4"
		},
		{
			"bufferView":7,
			"componentType":5126,
			"count":512,
			"max":[
				0.1313420981168747,
				0.8525336980819702,
				0.18186622858047485
			],
			"min":[
				-0.1313420981168747,
				0.7611119151115417,
				0.13223327696323395
			],
			"type":"VEC3"
		},
		{
			"bufferView":8,
			"componentType":5126,
			"count":512,
			"type":"VEC3"
		},
		{
			"bufferView":9,
			"componentType":5126,
			"count":512,
			"type":"VEC2"
		},
		{
			"bufferView":10,
			"componentType":5121,
			"count":512,
			"type":"VEC4"
		},
		{
			"bufferView":11,
			"componentType":5126,
			"count":512,
			"type":"VEC4"
		},
		{
			"bufferView":12,
			"componentType":5123,
			"count":768,
			"type":"SCALAR"
		},
		{
			"bufferView":13,
			"componentType":5126,
			"count":2097,
			"max":[
				0.43799179792404175,
				0.9974008798599243,
				0.23497961461544037
			],
			"min":[
				-0.43799179792404175,
				-0.003580885473638773,
				-0.17102427780628204
			],
			"type":"VEC3"
		},
		{
			"bufferView":14,
			"componentType":5126,
			"count":2097,
			"type":"VEC3"
		},
		{
			"bufferView":15,
			"componentType":5126,
			"count":2097,
			"type":"VEC2"
		},
		{
			"bufferView":16,
			"componentType":5121,
			"count":2097,
			"type":"VEC4"
		},
		{
			"bufferView":17,
			"componentType":5126,
			"count":2097,
			"type":"VEC4"
		},
		{
			"bufferView":18,
			"componentType":5123,
			"count":3228,
			"type":"SCALAR"
		},
		{
			"bufferView":19,
			"componentType":5126,
			"count":372,
			"max":[
				0.17605064809322357,
				0.3989972472190857,
				0.11072564870119095
			],
			"min":[
				-0.17605064809322357,
				0.16009347140789032,
				-0.1140686497092247
			],
			"type":"VEC3"
		},
		{
			"bufferView":20,
			"componentType":5126,
			"count":372,
			"type":"VEC3"
		},
		{
			"bufferView":21,
			"componentType":5126,
			"count":372,
			"type":"VEC2"
		},
		{
			"bufferView":22,
			"componentType":5121,
			"count":372,
			"type":"VEC4"
		},
		{
			"bufferView":23,
			"componentType":5126,
			"count":372,
			"type":"VEC4"
		},
		{
			"bufferView":24,
			"componentType":5123,
			"count":576,
			"type":"SCALAR"
		}
	],
	"bufferViews":[
		{
			"buffer":0,
			"byteLength":3600,
			"byteOffset":0,
			"target":34962
		},
		{
			"buffer":0,
			"byteLength":3600,
			"byteOffset":3600,
			"target":34962
		},
		{
			"buffer":0,
			"byteLength":2400,
			"byteOffset":7200,
			"target":34962
		},
		{
			"buffer":0,
			"byteLength":1200,
			"byteOffset":9600,
			"target":34962
		},
		{
			"buffer":0,
			"byteLength":4800,
			"byteOffset":10800,
			"target":34962
		},
		{
			"buffer":0,
			"byteLength":960,
			"byteOffset":15600,
			"target":34963
		},
		{
			"buffer":0,
			"byteLength":1728,
			"byteOffset":16560
		},
		{
			"buffer":0,
			"byteLength":6144,
			"byteOffset":18288,
			"target":34962
		},
		{
			"buffer":0,
			"byteLength":6144,
			"byteOffset":24432,
			"target":34962
		},
		{
			"buffer":0,
			"byteLength":4096,
			"byteOffset":30576,
			"target":34962
		},
		{
			"buffer":0,
			"byteLength":2048,
			"byteOffset":34672,
			"target":34962
		},
		{
			"buffer":0,
			"byteLength":8192,
			"byteOffset":36720,
			"target":34962
		},
		{
			"buffer":0,
			"byteLength":1536,
			"byteOffset":44912,
			"target":34963
		},
		{
			"buffer":0,
			"byteLength":25164,
			"byteOffset":46448,
			"target":34962
		},
		{
			"buffer":0,
			"byteLength":25164,
			"byteOffset":71612,
			"target":34962
		},
		{
			"buffer":0,
			"byteLength":16776,
			"byteOffset":96776,
			"target":34962
		},
		{
			"buffer":0,
			"byteLength":8388,
			"byteOffset":113552,
			"target":34962
		},
		{
			"buffer":0,
			"byteLength":33552,
			"byteOffset":121940,
			"target":34962
		},
		{
			"buffer":0,
			"byteLength":6456,
			"byteOffset":155492,
			"target":34963
		},
		{
			"buffer":0,
			"byteLength":4464,
			"byteOffset":161948,
			"target":34962
		},
		{
			"buffer":0,
			"byteLength":4464,
			"byteOffset":166412,
			"target":34962
		},
		{
			"buffer":0,
			"byteLength":2976,
			"byteOffset":170876,
			"target":34962
		},
		{
			"buffer":0,
			"byteLength":1488,
			"byteOffset":173852,
			"target":34962
		},
		{
			"buffer":0,
			"byteLength":5952,
			"byteOffset":175340,
			"target":34962
		},
		{
			"buffer":0,
			"byteLength":1152,
			"byteOffset":181292,
			"target":34963
		}
	],
	"samplers":[
		{
			"magFilter":9729,
			"minFilter":9987
		}
	],
	"buffers":[
		{
			"byteLength":182444,
			"uri":"CH_Basic_Goblin.bin"
		}
	]
}
