# Blender 5.0.1
# www.blender.org
mtllib Goblin_Rusty_Shiv.mtl
o Rusty_Shiv
v 0.000000 -0.116334 -0.049273
v 0.000000 0.059032 -0.025523
v 0.046898 -0.116334 -0.024637
v 0.041450 0.059032 -0.012762
v 0.046898 -0.116334 0.024637
v 0.041450 0.059032 0.012762
v 0.000000 -0.116334 0.049273
v 0.000000 0.059032 0.025523
v 0.036562 0.331987 -0.006805
v 0.000000 0.367933 -0.004675
v 0.036562 0.331987 0.006805
v 0.000000 0.367933 0.004675
v 0.000000 0.069467 -0.059032
v 0.146329 0.069467 -0.015813
v 0.146329 0.069467 0.015813
v 0.000000 0.069467 0.059032
v 0.000000 -0.091554 -0.025523
v 0.041450 -0.091554 -0.012762
v 0.041450 -0.091554 0.012762
v 0.000000 -0.091554 0.025523
v -0.046898 -0.116334 -0.024637
v -0.041450 0.059032 -0.012762
v -0.046898 -0.116334 0.024637
v -0.041450 0.059032 0.012762
v -0.036562 0.331987 -0.006805
v -0.036562 0.331987 0.006805
v -0.146329 0.069467 -0.015813
v -0.146329 0.069467 0.015813
v -0.041450 -0.091554 -0.012762
v -0.041450 -0.091554 0.012762
vn 0.2943 -0.0000 -0.9557
vn 1.0000 -0.0000 -0.0000
vn 0.2943 -0.0000 0.9557
vn 0.2801 0.1496 -0.9482
vn -0.0000 -1.0000 -0.0000
vn 0.7011 0.7131 -0.0000
vn 0.1180 0.1779 0.9769
vn 0.9226 0.3858 -0.0000
vn 0.0990 -0.9951 -0.0000
vn 0.0912 -0.9508 0.2961
vn 0.0863 -0.9525 -0.2921
vn 0.3546 0.6470 0.6750
vn 0.9767 0.2147 -0.0000
vn 0.3546 0.6470 -0.6750
vn -0.2943 -0.0000 -0.9557
vn -1.0000 -0.0000 -0.0000
vn -0.2943 -0.0000 0.9557
vn -0.2801 0.1496 -0.9482
vn -0.7011 0.7131 -0.0000
vn -0.2801 0.1496 0.9482
vn -0.9226 0.3858 -0.0000
vn -0.0990 -0.9951 -0.0000
vn -0.0912 -0.9508 0.2961
vn -0.0912 -0.9508 -0.2961
vn -0.2608 0.4632 0.8470
vn -0.9767 0.2147 -0.0000
vn -0.3546 0.6470 -0.6750
vn 0.1180 0.1779 -0.9769
vn 0.2801 0.1496 0.9482
vn 0.0863 -0.9525 0.2921
vn 0.0912 -0.9508 -0.2961
vn 0.2608 0.4632 0.8470
vn 0.2608 0.4632 -0.8470
vn -0.1180 0.1779 -0.9769
vn -0.1180 0.1779 0.9769
vn -0.0863 -0.9525 0.2921
vn -0.0863 -0.9525 -0.2921
vn -0.3546 0.6470 0.6750
vn -0.2608 0.4632 -0.8470
vt 0.114298 0.638177
vt 0.081650 0.524914
vt 0.114298 0.524998
vt 0.081702 0.638240
vt 0.062452 0.524959
vt 0.062504 0.638284
vt 0.029856 0.525022
vt 0.879526 0.496265
vt 0.751886 0.605304
vt 0.812800 0.462402
vt 0.208858 0.469521
vt 0.169565 0.401347
vt 0.208858 0.374287
vt 0.748033 0.635856
vt 0.745396 0.602383
vt 0.727237 0.436183
vt 0.727237 0.627697
vt 0.800429 0.454147
vt 0.843325 0.436881
vt 0.789915 0.418707
vt 0.749570 0.416009
vt 0.174235 0.356111
vt 0.143419 0.439770
vt 0.168751 0.441968
vt 0.171075 0.487092
vt 0.875994 0.464661
vt 0.146546 0.399329
vt 0.029856 0.638201
s 0
usemtl Material
f 2/1/1 18/2/1 17/3/1
f 4/4/2 19/5/2 18/2/2
f 6/6/3 20/7/3 19/5/3
f 13/8/4 9/9/4 14/10/4
f 1/11/5 5/12/5 7/13/5
f 10/14/6 11/15/6 9/9/6
f 16/16/7 11/15/7 12/17/7
f 14/10/8 11/15/8 15/18/8
f 4/19/9 15/18/9 6/20/9
f 6/20/10 16/16/10 8/21/10
f 4/19/11 13/8/11 14/10/11
f 5/12/12 20/22/12 7/13/12
f 18/23/13 5/12/13 3/24/13
f 17/25/14 3/24/14 1/11/14
f 29/2/15 2/1/15 17/3/15
f 30/5/16 22/4/16 29/2/16
f 20/7/17 24/6/17 30/5/17
f 25/9/18 13/8/18 27/10/18
f 23/12/5 1/11/5 7/13/5
f 26/15/19 10/14/19 25/9/19
f 16/16/20 26/15/20 28/18/20
f 26/15/21 27/10/21 28/18/21
f 28/18/22 22/19/22 24/20/22
f 16/16/23 24/20/23 8/21/23
f 22/19/24 13/8/24 2/26/24
f 23/12/25 20/22/25 30/27/25
f 23/12/26 29/23/26 21/24/26
f 21/24/27 17/25/27 1/11/27
f 2/1/1 4/4/1 18/2/1
f 4/4/2 6/6/2 19/5/2
f 6/6/3 8/28/3 20/7/3
f 13/8/28 10/14/28 9/9/28
f 1/11/5 3/24/5 5/12/5
f 10/14/6 12/17/6 11/15/6
f 16/16/29 15/18/29 11/15/29
f 14/10/8 9/9/8 11/15/8
f 4/19/9 14/10/9 15/18/9
f 6/20/30 15/18/30 16/16/30
f 4/19/31 2/26/31 13/8/31
f 5/12/32 19/27/32 20/22/32
f 18/23/13 19/27/13 5/12/13
f 17/25/33 18/23/33 3/24/33
f 29/2/15 22/4/15 2/1/15
f 30/5/16 24/6/16 22/4/16
f 20/7/17 8/28/17 24/6/17
f 25/9/34 10/14/34 13/8/34
f 23/12/5 21/24/5 1/11/5
f 26/15/19 12/17/19 10/14/19
f 16/16/35 12/17/35 26/15/35
f 26/15/21 25/9/21 27/10/21
f 28/18/22 27/10/22 22/19/22
f 16/16/36 28/18/36 24/20/36
f 22/19/37 27/10/37 13/8/37
f 23/12/38 7/13/38 20/22/38
f 23/12/26 30/27/26 29/23/26
f 21/24/39 29/23/39 17/25/39
