# Blender 5.0.1
# www.blender.org
mtllib Goblin_Notched_Shortsword.mtl
o Notched_Shortsword_
v -0.040000 0.082597 0.000000
v -0.020000 0.082597 -0.034641
v 0.020000 0.082597 -0.034641
v 0.040000 0.082597 0.000000
v -0.020000 -0.099019 -0.034641
v 0.020000 -0.099019 -0.034641
v 0.040000 -0.099019 0.000000
v -0.040000 -0.099019 0.000000
v -0.016320 0.115043 -0.157064
v -0.057641 0.115043 0.000000
v -0.057641 0.082597 0.000000
v 0.016320 0.115043 -0.157064
v 0.057641 0.115043 0.000000
v -0.030185 0.082597 -0.173299
v 0.030185 0.082597 -0.173299
v 0.057641 0.082597 0.000000
v -0.058358 -0.133072 0.000000
v -0.030599 -0.133072 -0.052999
v -0.030599 -0.099019 -0.052999
v 0.030599 -0.133072 -0.052999
v 0.030599 -0.099019 -0.052999
v 0.058358 -0.133072 0.000000
v 0.058358 -0.099019 0.000000
v -0.058358 -0.099019 0.000000
v -0.030185 0.115043 -0.173299
v 0.030185 0.115043 -0.173299
v 0.037883 0.115043 0.000000
v -0.039584 0.115043 0.000000
v 0.007668 0.776076 -0.157064
v -0.007668 0.776076 -0.157064
v 0.009066 0.869973 0.000000
v -0.010766 0.869973 0.000000
v -0.020000 0.082597 0.034641
v 0.020000 0.082597 0.034641
v -0.020000 -0.099019 0.034641
v 0.020000 -0.099019 0.034641
v -0.016320 0.115043 0.157064
v 0.016320 0.115043 0.157064
v -0.030185 0.082597 0.173299
v 0.030185 0.082597 0.173299
v -0.030599 -0.133072 0.052999
v -0.030599 -0.099019 0.052999
v 0.030599 -0.133072 0.052999
v 0.030599 -0.099019 0.052999
v -0.030185 0.115043 0.173299
v 0.030185 0.115043 0.173299
v 0.007668 0.776076 0.157064
v -0.007668 0.776076 0.157064
vn -0.0000 1.0000 -0.0000
vn -0.0000 -1.0000 -0.0000
vn 0.8660 -0.0000 -0.5000
vn -0.0000 -0.0000 -1.0000
vn -0.8660 -0.0000 -0.5000
vn -0.9877 -0.0000 -0.1565
vn 0.9877 -0.0000 -0.1565
vn -0.8858 -0.0000 -0.4640
vn 0.8858 -0.0000 -0.4640
vn -0.0000 0.8583 -0.5131
vn -0.9891 0.0129 -0.1465
vn 0.9988 0.0381 -0.0317
vn 0.8660 -0.0000 0.5000
vn -0.0000 -0.0000 1.0000
vn -0.8660 -0.0000 0.5000
vn -0.9877 -0.0000 0.1565
vn 0.9877 -0.0000 0.1565
vn -0.8858 -0.0000 0.4640
vn 0.8858 -0.0000 0.4640
vn -0.0000 0.8583 0.5131
vn -0.9891 0.0129 0.1465
vn 0.9906 0.0130 0.1360
vn -0.9984 0.0381 -0.0425
vn 0.9906 0.0130 -0.1360
vn -0.9984 0.0381 0.0425
vn 0.9988 0.0381 0.0317
vt 0.736987 0.603036
vt 0.832519 0.593166
vt 0.829924 0.603036
vt 0.786455 0.514645
vt 0.771679 0.483985
vt 0.780950 0.488221
vt 0.083682 0.522345
vt 0.110546 0.644270
vt 0.083702 0.644298
vt 0.056827 0.522369
vt 0.056847 0.644322
vt 0.029983 0.522397
vt 0.029983 0.644279
vt 0.900149 0.490102
vt 0.925549 0.542258
vt 0.900149 0.565758
vt 0.956526 0.509249
vt 0.927877 0.476024
vt 0.940863 0.480056
vt 0.952340 0.552818
vt 0.922212 0.577310
vt 0.942646 0.548534
vt 0.749069 0.579619
vt 0.832476 0.570055
vt 0.738698 0.593818
vt 0.738234 0.558282
vt 0.722176 0.558499
vt 0.809718 0.546273
vt 0.926929 0.510994
vt 0.944912 0.510464
vt 0.752299 0.477994
vt 0.712534 0.557583
vt 0.741172 0.476964
vt 0.924019 0.160339
vt 0.928977 0.060262
vt 0.929996 0.160310
vt 0.941779 0.039661
vt 0.927177 0.059767
vt 0.912800 0.039661
vt 0.895196 0.159354
vt 0.958829 0.159235
vt 0.934669 0.576464
vt 0.831877 0.559988
vt 0.110546 0.522388
s 0
usemtl Material
f 9/1/1 10/2/1 28/3/1
f 3/4/2 16/5/2 4/6/2
f 3/7/3 7/8/3 6/9/3
f 2/10/4 6/9/4 5/11/4
f 1/12/5 5/11/5 8/13/5
f 17/14/2 20/15/2 22/16/2
f 5/17/1 24/18/1 8/19/1
f 6/20/1 23/21/1 21/22/1
f 10/2/6 14/23/6 11/24/6
f 25/25/4 15/26/4 14/23/4
f 26/27/7 16/5/7 15/26/7
f 2/28/2 15/26/2 3/4/2
f 2/28/2 11/24/2 14/23/2
f 24/18/8 18/29/8 17/14/8
f 19/30/4 20/15/4 18/29/4
f 21/22/9 22/16/9 20/15/9
f 6/20/1 19/30/1 5/17/1
f 13/31/1 12/32/1 27/33/1
f 12/32/1 25/25/1 9/1/1
f 9/34/4 29/35/4 12/36/4
f 31/37/10 30/38/10 32/39/10
f 28/40/11 30/38/11 9/34/11
f 27/41/12 29/35/12 31/37/12
f 10/2/1 37/1/1 28/3/1
f 16/5/2 34/4/2 4/6/2
f 7/8/13 34/7/13 36/9/13
f 36/9/14 33/10/14 35/11/14
f 35/11/15 1/12/15 8/13/15
f 43/15/2 17/14/2 22/16/2
f 24/18/1 35/17/1 8/19/1
f 36/20/1 23/21/1 7/42/1
f 39/23/16 10/2/16 11/24/16
f 40/26/14 45/25/14 39/23/14
f 16/5/17 46/27/17 40/26/17
f 40/26/2 33/28/2 34/4/2
f 33/28/2 11/24/2 1/43/2
f 41/29/18 24/18/18 17/14/18
f 43/15/14 42/30/14 41/29/14
f 22/16/19 44/22/19 43/15/19
f 42/30/1 36/20/1 35/17/1
f 38/32/1 13/31/1 27/33/1
f 45/25/1 38/32/1 37/1/1
f 47/35/14 37/34/14 38/36/14
f 31/37/20 48/38/20 47/35/20
f 48/38/21 28/40/21 37/34/21
f 27/41/22 47/35/22 38/36/22
f 9/1/1 25/25/1 10/2/1
f 3/4/2 15/26/2 16/5/2
f 3/7/3 4/44/3 7/8/3
f 2/10/4 3/7/4 6/9/4
f 1/12/5 2/10/5 5/11/5
f 17/14/2 18/29/2 20/15/2
f 5/17/1 19/30/1 24/18/1
f 6/20/1 7/42/1 23/21/1
f 10/2/6 25/25/6 14/23/6
f 25/25/4 26/27/4 15/26/4
f 26/27/7 13/31/7 16/5/7
f 2/28/2 14/23/2 15/26/2
f 2/28/2 1/43/2 11/24/2
f 24/18/8 19/30/8 18/29/8
f 19/30/4 21/22/4 20/15/4
f 21/22/9 23/21/9 22/16/9
f 6/20/1 21/22/1 19/30/1
f 13/31/1 26/27/1 12/32/1
f 12/32/1 26/27/1 25/25/1
f 9/34/4 30/38/4 29/35/4
f 31/37/10 29/35/10 30/38/10
f 28/40/23 32/39/23 30/38/23
f 27/41/24 12/36/24 29/35/24
f 10/2/1 45/25/1 37/1/1
f 16/5/2 40/26/2 34/4/2
f 7/8/13 4/44/13 34/7/13
f 36/9/14 34/7/14 33/10/14
f 35/11/15 33/10/15 1/12/15
f 43/15/2 41/29/2 17/14/2
f 24/18/1 42/30/1 35/17/1
f 36/20/1 44/22/1 23/21/1
f 39/23/16 45/25/16 10/2/16
f 40/26/14 46/27/14 45/25/14
f 16/5/17 13/31/17 46/27/17
f 40/26/2 39/23/2 33/28/2
f 33/28/2 39/23/2 11/24/2
f 41/29/18 42/30/18 24/18/18
f 43/15/14 44/22/14 42/30/14
f 22/16/19 23/21/19 44/22/19
f 42/30/1 44/22/1 36/20/1
f 38/32/1 46/27/1 13/31/1
f 45/25/1 46/27/1 38/32/1
f 47/35/14 48/38/14 37/34/14
f 31/37/20 32/39/20 48/38/20
f 48/38/25 32/39/25 28/40/25
f 27/41/26 31/37/26 47/35/26
