# Blender 5.0.1
# www.blender.org
mtllib Goblin_Recurve_Shortbow.mtl
o Bow
v 0.022191 0.038569 -0.022191
v 0.022191 0.077138 0.022191
v -0.022191 0.038569 -0.022191
v -0.022191 0.077138 0.022191
v -0.022191 0.038569 0.022191
v 0.022191 0.077138 -0.022191
v 0.022191 0.038569 0.022191
v -0.022191 0.077138 -0.022191
v 0.022191 0.000000 0.022191
v -0.022191 0.000000 0.022191
v -0.022191 0.000000 -0.022191
v 0.022191 0.000000 -0.022191
v 0.022191 0.160618 0.040864
v -0.022191 0.160618 0.040864
v -0.022191 0.160618 -0.003518
v 0.022191 0.160618 -0.003518
v 0.022191 0.270500 0.022589
v -0.022191 0.270500 0.022589
v -0.022191 0.259436 -0.020392
v 0.022191 0.259436 -0.020392
v 0.012980 0.424182 -0.111768
v -0.012980 0.424182 -0.111768
v -0.012980 0.417711 -0.136908
v 0.012980 0.417711 -0.136908
v 0.028308 0.038569 0.028308
v -0.028308 0.038569 0.028308
v 0.028308 0.077138 0.028308
v -0.028308 0.077138 0.028308
v -0.028308 0.038569 -0.028308
v 0.028308 0.038569 -0.028308
v -0.028308 0.077138 -0.028308
v 0.028308 0.077138 -0.028308
v -0.016043 0.348098 -0.103987
v 0.016043 0.348098 -0.103987
v 0.016043 0.356097 -0.072915
v -0.016043 0.356097 -0.072915
v -0.015167 0.368004 -0.113401
v 0.015167 0.375566 -0.084025
v 0.015167 0.368004 -0.113401
v -0.015167 0.375566 -0.084025
v 0.021174 0.367680 -0.121251
v 0.022397 0.348839 -0.108108
v -0.021174 0.374837 -0.080240
v -0.022397 0.356409 -0.064729
v -0.022397 0.348839 -0.108108
v 0.022397 0.356409 -0.064729
v -0.021174 0.367680 -0.121251
v 0.021174 0.374837 -0.080240
v 0.008142 0.000000 -0.110903
v 0.008612 0.000000 -0.097760
v -0.008612 -0.000000 -0.097760
v -0.008142 -0.000000 -0.110903
v -0.008142 0.358766 -0.121403
v -0.008612 0.340326 -0.108261
v 0.008612 0.340326 -0.108261
v 0.008142 0.358766 -0.121403
v 0.022191 -0.038569 -0.022191
v 0.022191 -0.077138 0.022191
v -0.022191 -0.038569 -0.022191
v -0.022191 -0.077138 0.022191
v -0.022191 -0.038569 0.022191
v 0.022191 -0.077138 -0.022191
v 0.022191 -0.038569 0.022191
v -0.022191 -0.077138 -0.022191
v 0.022191 -0.160618 0.040864
v -0.022191 -0.160618 0.040864
v -0.022191 -0.160618 -0.003518
v 0.022191 -0.160618 -0.003518
v 0.022191 -0.270500 0.022589
v -0.022191 -0.270500 0.022589
v -0.022191 -0.259436 -0.020392
v 0.022191 -0.259436 -0.020392
v 0.012980 -0.424182 -0.111768
v -0.012980 -0.424182 -0.111768
v -0.012980 -0.417711 -0.136908
v 0.012980 -0.417711 -0.136908
v 0.028308 -0.038569 0.028308
v -0.028308 -0.038569 0.028308
v 0.028308 -0.077138 0.028308
v -0.028308 -0.077138 0.028308
v -0.028308 -0.038569 -0.028308
v 0.028308 -0.038569 -0.028308
v -0.028308 -0.077138 -0.028308
v 0.028308 -0.077138 -0.028308
v -0.016043 -0.348098 -0.103987
v 0.016043 -0.348098 -0.103987
v 0.016043 -0.356097 -0.072915
v -0.016043 -0.356097 -0.072915
v -0.015167 -0.368004 -0.113401
v 0.015167 -0.375566 -0.084025
v 0.015167 -0.368004 -0.113401
v -0.015167 -0.375566 -0.084025
v 0.021174 -0.367680 -0.121251
v 0.022397 -0.348839 -0.108108
v -0.021174 -0.374837 -0.080240
v -0.022397 -0.356409 -0.064729
v -0.022397 -0.348839 -0.108108
v 0.022397 -0.356409 -0.064729
v -0.021174 -0.367680 -0.121251
v 0.021174 -0.374837 -0.080240
v -0.008142 -0.358766 -0.121403
v -0.008612 -0.340326 -0.108261
v 0.008612 -0.340326 -0.108261
v 0.008142 -0.358766 -0.121403
vn -0.0000 1.0000 -0.0000
vn -0.0000 -1.0000 -0.0000
vn 1.0000 -0.0000 -0.0000
vn -0.0000 0.2183 -0.9759
vn -0.0000 -0.0000 1.0000
vn -1.0000 -0.0000 -0.0000
vn -0.0000 -0.0000 -1.0000
vn -0.0000 -0.2183 0.9759
vn -0.0000 -0.4275 -0.9040
vn -0.0000 -0.1683 -0.9857
vn -0.0000 0.1641 0.9864
vn -0.0000 0.9684 -0.2493
vn -0.0000 0.4956 0.8685
vn 0.9992 0.0392 -0.0101
vn -0.9992 0.0392 -0.0101
vn -0.9983 0.0557 -0.0143
vn 0.9983 0.0557 -0.0143
vn -0.0000 0.7447 0.6674
vn -0.0000 -0.6860 -0.7276
vn -0.2648 0.9339 -0.2404
vn -0.0000 0.9820 0.1891
vn -0.1705 -0.9707 0.1694
vn -0.0000 -0.9842 -0.1769
vn -0.9983 0.0578 -0.0101
vn 0.9983 0.0578 -0.0101
vn -0.0000 0.6440 0.7651
vn -0.9994 -0.0011 -0.0358
vn -0.0000 -0.9993 0.0382
vn -0.0000 0.9991 -0.0413
vn -0.2648 -0.9339 0.2404
vn -0.1690 0.9709 -0.1695
vn 0.9993 -0.0011 -0.0373
vn -0.0000 -0.0293 -0.9996
vn -0.0000 0.0308 0.9995
vn -0.0000 -0.0179 0.9998
vn -0.0000 0.0171 -0.9999
vn 0.3628 -0.5172 -0.7752
vn -0.3418 -0.5396 -0.7694
vn -0.0000 -0.2183 -0.9759
vn -0.0000 0.2183 0.9759
vn -0.0000 0.4275 -0.9040
vn -0.0000 0.1683 -0.9857
vn -0.0000 -0.1641 0.9864
vn -0.0000 -0.9684 -0.2493
vn -0.0000 -0.4956 0.8685
vn 0.9992 -0.0392 -0.0101
vn -0.9992 -0.0392 -0.0101
vn -0.9983 -0.0557 -0.0143
vn 0.9983 -0.0557 -0.0143
vn -0.0000 -0.7447 0.6674
vn -0.0000 0.6860 -0.7276
vn -0.2648 -0.9339 -0.2404
vn -0.0000 -0.9820 0.1891
vn 0.2648 0.9339 0.2404
vn -0.0000 0.9842 -0.1769
vn -0.9983 -0.0578 -0.0101
vn 0.9983 -0.0578 -0.0101
vn -0.0000 -0.6440 0.7651
vn -0.9993 0.0011 -0.0373
vn -0.0000 0.9993 0.0382
vn -0.0000 -0.9991 -0.0413
vn -0.2648 0.9339 0.2404
vn 0.2648 -0.9339 -0.2404
vn 0.9993 0.0011 -0.0373
vn -0.0000 0.0293 -0.9996
vn -0.0000 -0.0308 0.9995
vn -0.0000 0.0179 0.9998
vn -0.0000 -0.0171 -0.9999
vn 0.3628 0.5172 -0.7752
vn -0.3628 0.5172 -0.7752
vn 0.1690 0.9709 -0.1695
vn 0.2648 -0.9339 0.2404
vn -0.9993 -0.0011 -0.0373
vn 0.1705 -0.9707 0.1694
vn 0.2648 0.9339 -0.2404
vn 0.9994 -0.0011 -0.0358
vn 0.3418 -0.5396 -0.7694
vn -0.3628 -0.5172 -0.7752
vn 0.1690 -0.9709 -0.1695
vn -0.1705 0.9707 0.1694
vn -0.9994 0.0011 -0.0358
vn 0.1705 0.9707 0.1694
vn -0.1690 -0.9709 -0.1695
vn 0.9994 0.0011 -0.0358
vn 0.3418 0.5396 -0.7694
vn -0.3418 0.5396 -0.7694
vt 0.524628 0.734186
vt 0.527133 0.756329
vt 0.524475 0.753628
vt 0.497694 0.726694
vt 0.500085 0.758126
vt 0.497694 0.760967
vt 0.529126 0.758576
vt 0.531967 0.760967
vt 0.505033 0.753475
vt 0.502527 0.731333
vt 0.505186 0.734034
vt 0.417930 0.794149
vt 0.403302 0.797754
vt 0.400411 0.795795
vt 0.422902 0.792300
vt 0.416651 0.821497
vt 0.805189 0.260277
vt 0.832445 0.256771
vt 0.805189 0.256771
vt 0.782616 0.260277
vt 0.809871 0.256771
vt 0.782616 0.256771
vt 0.832445 0.260277
vt 0.809871 0.260277
vt 0.397951 0.792300
vt 0.401344 0.816006
vt 0.399419 0.821116
vt 0.421791 0.823851
vt 0.497707 0.722181
vt 0.520696 0.728878
vt 0.508246 0.730529
vt 0.404279 0.814356
vt 0.414917 0.818576
vt 0.416108 0.796076
vt 0.505572 0.738589
vt 0.501905 0.756336
vt 0.523447 0.737777
vt 0.526965 0.756404
vt 0.530856 0.722181
vt 0.529576 0.729535
vt 0.527328 0.731528
vt 0.500535 0.729085
vt 0.502333 0.756134
vt 0.531967 0.726694
vt 0.410007 0.808126
vt 0.411684 0.808516
vt 0.410071 0.803652
vt 0.411149 0.803921
vt 0.736590 0.273923
vt 0.732645 0.284173
vt 0.733146 0.280134
vt 0.733082 0.260895
vt 0.733461 0.263899
vt 0.727070 0.258231
vt 0.751119 0.259223
vt 0.728492 0.260074
vt 0.748157 0.285982
vt 0.751894 0.258457
vt 0.746673 0.285341
vt 0.737587 0.274726
vt 0.728383 0.285115
vt 0.746606 0.285110
vt 0.742802 0.272629
vt 0.743525 0.274469
vt 0.727070 0.287370
vt 0.737511 0.264131
vt 0.738871 0.262524
vt 0.751015 0.259356
vt 0.744741 0.266568
vt 0.738996 0.262610
vt 0.737698 0.274681
vt 0.746219 0.265461
s 0
usemtl Material
f 4/1/1 27/2/1 2/3/1
f 3/4/2 30/5/2 1/6/2
f 1/6/2 25/7/2 7/8/2
f 6/9/1 31/10/1 8/11/1
f 16/12/3 17/13/3 13/14/3
f 6/15/4 15/16/4 16/12/4
f 7/17/5 10/18/5 9/19/5
f 5/20/6 11/21/6 10/22/6
f 3/23/7 12/19/7 11/18/7
f 1/24/3 9/22/3 12/21/3
f 2/25/8 14/26/8 4/27/8
f 2/25/3 16/12/3 13/14/3
f 4/27/6 15/16/6 8/28/6
f 39/29/9 23/30/9 24/31/9
f 15/16/6 18/32/6 19/33/6
f 16/12/10 19/33/10 20/34/10
f 13/14/11 18/32/11 14/26/11
f 23/30/12 21/35/12 24/31/12
f 38/36/13 22/37/13 40/38/13
f 39/29/14 21/35/14 38/36/14
f 37/39/15 22/37/15 23/30/15
f 27/2/5 26/40/5 25/7/5
f 28/41/6 29/42/6 26/40/6
f 31/10/7 30/5/7 29/42/7
f 32/43/3 25/7/3 30/5/3
f 2/3/1 32/43/1 6/9/1
f 7/8/2 26/40/2 5/44/2
f 8/11/1 28/41/1 4/1/1
f 5/44/2 29/42/2 3/4/2
f 19/33/16 36/45/16 33/46/16
f 20/34/17 35/47/17 17/13/17
f 17/13/18 36/45/18 18/32/18
f 20/34/19 33/46/19 34/48/19
f 37/49/20 43/50/20 40/51/20
f 40/51/21 48/52/21 38/53/21
f 35/54/22 42/55/22 46/56/22
f 33/57/23 42/55/23 34/58/23
f 45/59/24 43/50/24 47/60/24
f 42/55/25 48/52/25 46/56/25
f 46/56/26 43/50/26 44/61/26
f 54/62/27 52/63/27 51/64/27
f 35/54/28 44/61/28 36/65/28
f 39/66/29 47/60/29 37/49/29
f 36/65/30 45/59/30 33/57/30
f 39/66/31 48/52/31 41/67/31
f 55/68/32 49/69/32 56/70/32
f 56/70/33 52/63/33 53/71/33
f 54/62/34 50/72/34 55/68/34
f 42/55/35 54/62/35 55/68/35
f 47/60/36 56/70/36 53/71/36
f 42/55/37 56/70/37 41/67/37
f 45/59/38 53/71/38 54/62/38
f 79/2/2 60/1/2 58/3/2
f 82/5/1 59/4/1 57/6/1
f 77/7/1 57/6/1 63/8/1
f 83/10/2 62/9/2 64/11/2
f 69/13/3 68/12/3 65/14/3
f 62/15/39 67/16/39 64/28/39
f 10/18/5 63/17/5 9/19/5
f 11/21/6 61/20/6 10/22/6
f 12/19/7 59/23/7 11/18/7
f 9/22/3 57/24/3 12/21/3
f 66/26/40 58/25/40 60/27/40
f 58/25/3 68/12/3 62/15/3
f 67/16/6 60/27/6 64/28/6
f 91/29/41 75/30/41 89/39/41
f 67/16/6 70/32/6 66/26/6
f 68/12/42 71/33/42 67/16/42
f 70/32/43 65/14/43 66/26/43
f 75/30/44 73/35/44 74/37/44
f 74/37/45 90/36/45 92/38/45
f 73/35/46 91/29/46 90/36/46
f 89/39/47 74/37/47 92/38/47
f 78/40/5 79/2/5 77/7/5
f 81/42/6 80/41/6 78/40/6
f 82/5/7 83/10/7 81/42/7
f 77/7/3 84/43/3 82/5/3
f 84/43/2 58/3/2 62/9/2
f 78/40/1 63/8/1 61/44/1
f 80/41/2 64/11/2 60/1/2
f 81/42/1 61/44/1 59/4/1
f 71/33/48 88/45/48 70/32/48
f 87/47/49 72/34/49 69/13/49
f 88/45/50 69/13/50 70/32/50
f 72/34/51 85/46/51 71/33/51
f 95/50/52 89/49/52 92/51/52
f 100/52/53 92/51/53 90/53/53
f 87/54/54 94/55/54 86/58/54
f 94/55/55 85/57/55 86/58/55
f 97/59/56 95/50/56 96/61/56
f 100/52/57 94/55/57 98/56/57
f 95/50/58 98/56/58 96/61/58
f 102/62/59 52/63/59 101/71/59
f 96/61/60 87/54/60 88/65/60
f 99/60/61 91/66/61 89/49/61
f 97/59/62 88/65/62 85/57/62
f 91/66/63 100/52/63 90/53/63
f 49/69/64 103/68/64 104/70/64
f 52/63/65 104/70/65 101/71/65
f 50/72/66 102/62/66 103/68/66
f 94/55/67 102/62/67 97/59/67
f 99/60/68 104/70/68 93/67/68
f 104/70/69 94/55/69 93/67/69
f 97/59/70 101/71/70 99/60/70
f 4/1/1 28/41/1 27/2/1
f 3/4/2 29/42/2 30/5/2
f 1/6/2 30/5/2 25/7/2
f 6/9/1 32/43/1 31/10/1
f 16/12/3 20/34/3 17/13/3
f 6/15/4 8/28/4 15/16/4
f 7/17/5 5/23/5 10/18/5
f 5/20/6 3/24/6 11/21/6
f 3/23/7 1/17/7 12/19/7
f 1/24/3 7/20/3 9/22/3
f 2/25/8 13/14/8 14/26/8
f 2/25/3 6/15/3 16/12/3
f 4/27/6 14/26/6 15/16/6
f 39/29/9 37/39/9 23/30/9
f 15/16/6 14/26/6 18/32/6
f 16/12/10 15/16/10 19/33/10
f 13/14/11 17/13/11 18/32/11
f 23/30/12 22/37/12 21/35/12
f 38/36/13 21/35/13 22/37/13
f 39/29/14 24/31/14 21/35/14
f 37/39/15 40/38/15 22/37/15
f 27/2/5 28/41/5 26/40/5
f 28/41/6 31/10/6 29/42/6
f 31/10/7 32/43/7 30/5/7
f 32/43/3 27/2/3 25/7/3
f 2/3/1 27/2/1 32/43/1
f 7/8/2 25/7/2 26/40/2
f 8/11/1 31/10/1 28/41/1
f 5/44/2 26/40/2 29/42/2
f 19/33/16 18/32/16 36/45/16
f 20/34/17 34/48/17 35/47/17
f 17/13/18 35/47/18 36/45/18
f 20/34/19 19/33/19 33/46/19
f 37/49/71 47/60/71 43/50/71
f 40/51/21 43/50/21 48/52/21
f 35/54/72 34/58/72 42/55/72
f 33/57/23 45/59/23 42/55/23
f 45/59/24 44/61/24 43/50/24
f 42/55/25 41/67/25 48/52/25
f 46/56/26 48/52/26 43/50/26
f 54/62/73 53/71/73 52/63/73
f 35/54/28 46/56/28 44/61/28
f 39/66/29 41/67/29 47/60/29
f 36/65/74 44/61/74 45/59/74
f 39/66/75 38/53/75 48/52/75
f 55/68/76 50/72/76 49/69/76
f 56/70/33 49/69/33 52/63/33
f 54/62/34 51/64/34 50/72/34
f 42/55/35 45/59/35 54/62/35
f 47/60/36 41/67/36 56/70/36
f 42/55/77 55/68/77 56/70/77
f 45/59/78 47/60/78 53/71/78
f 79/2/2 80/41/2 60/1/2
f 82/5/1 81/42/1 59/4/1
f 77/7/1 82/5/1 57/6/1
f 83/10/2 84/43/2 62/9/2
f 69/13/3 72/34/3 68/12/3
f 62/15/39 68/12/39 67/16/39
f 10/18/5 61/23/5 63/17/5
f 11/21/6 59/24/6 61/20/6
f 12/19/7 57/17/7 59/23/7
f 9/22/3 63/20/3 57/24/3
f 66/26/40 65/14/40 58/25/40
f 58/25/3 65/14/3 68/12/3
f 67/16/6 66/26/6 60/27/6
f 91/29/41 76/31/41 75/30/41
f 67/16/6 71/33/6 70/32/6
f 68/12/42 72/34/42 71/33/42
f 70/32/43 69/13/43 65/14/43
f 75/30/44 76/31/44 73/35/44
f 74/37/45 73/35/45 90/36/45
f 73/35/46 76/31/46 91/29/46
f 89/39/47 75/30/47 74/37/47
f 78/40/5 80/41/5 79/2/5
f 81/42/6 83/10/6 80/41/6
f 82/5/7 84/43/7 83/10/7
f 77/7/3 79/2/3 84/43/3
f 84/43/2 79/2/2 58/3/2
f 78/40/1 77/7/1 63/8/1
f 80/41/2 83/10/2 64/11/2
f 81/42/1 78/40/1 61/44/1
f 71/33/48 85/46/48 88/45/48
f 87/47/49 86/48/49 72/34/49
f 88/45/50 87/47/50 69/13/50
f 72/34/51 86/48/51 85/46/51
f 95/50/79 99/60/79 89/49/79
f 100/52/53 95/50/53 92/51/53
f 87/54/80 98/56/80 94/55/80
f 94/55/55 97/59/55 85/57/55
f 97/59/56 99/60/56 95/50/56
f 100/52/57 93/67/57 94/55/57
f 95/50/58 100/52/58 98/56/58
f 102/62/81 51/64/81 52/63/81
f 96/61/60 98/56/60 87/54/60
f 99/60/61 93/67/61 91/66/61
f 97/59/82 96/61/82 88/65/82
f 91/66/83 93/67/83 100/52/83
f 49/69/84 50/72/84 103/68/84
f 52/63/65 49/69/65 104/70/65
f 50/72/66 51/64/66 102/62/66
f 94/55/67 103/68/67 102/62/67
f 99/60/68 101/71/68 104/70/68
f 104/70/85 103/68/85 94/55/85
f 97/59/86 102/62/86 101/71/86
