# Blender 5.0.1
# www.blender.org
mtllib Goblin_Arrow.mtl
o Arrow
v 0.001992 -0.002871 0.081416
v 0.001992 0.002871 0.081416
v -0.001992 -0.002871 0.081416
v -0.001992 0.002871 0.081416
v 0.012611 -0.018177 -0.394989
v 0.012611 0.018177 -0.394989
v -0.012611 -0.018177 -0.394989
v -0.012611 0.018177 -0.394989
v -0.012611 -0.013575 -0.005856
v -0.012611 0.013575 -0.005856
v 0.012611 -0.013575 -0.005856
v 0.012611 0.013575 -0.005856
v -0.015642 -0.033449 0.018177
v 0.015642 -0.033449 0.018177
v 0.015642 0.033449 0.018177
v -0.015642 0.033449 0.018177
v -0.015642 -0.033449 -0.005856
v 0.015642 0.033449 -0.005856
v -0.015642 0.033449 -0.005856
v 0.015642 -0.033449 -0.005856
v -0.012611 0.018177 -0.472138
v -0.012611 -0.018177 -0.472138
v 0.012611 -0.018177 -0.472138
v 0.012611 0.018177 -0.472138
v 0.014073 -0.043868 -0.420768
v -0.014073 -0.043868 -0.420768
v -0.014073 0.043868 -0.420768
v 0.014073 0.043868 -0.420768
v 0.014073 -0.043868 -0.497918
v -0.014073 -0.043868 -0.497918
v -0.014073 0.043868 -0.497918
v 0.014073 0.043868 -0.497918
vn -0.0000 -0.0000 1.0000
vn -1.0000 -0.0000 -0.0000
vn -0.9984 -0.0568 -0.0000
vn -0.0000 -0.0000 -1.0000
vn -0.0000 -0.9999 0.0118
vn -0.0000 0.9999 0.0118
vn 0.9775 -0.0000 0.2110
vn 1.0000 -0.0000 -0.0000
vn -0.9775 -0.0000 0.2110
vn -0.0000 1.0000 -0.0000
vn -0.0000 -1.0000 -0.0000
vn -0.0000 0.9003 0.4353
vn -0.0000 -0.9003 0.4353
vn 0.9984 0.0568 -0.0000
vn -0.0000 0.7083 0.7059
vn -0.0000 0.7083 -0.7059
vn -0.9984 0.0568 -0.0000
vn 0.9984 -0.0568 -0.0000
vn -0.0000 -0.7083 0.7059
vn -0.0000 -0.7083 -0.7059
vt 0.757072 0.250438
vt 0.760274 0.249793
vt 0.759329 0.251111
vt 0.148657 0.547317
vt 0.191577 0.543308
vt 0.148657 0.543308
vt 0.414079 0.152851
vt 0.394942 0.158841
vt 0.423683 0.158841
vt 0.790826 0.295445
vt 0.786373 0.214539
vt 0.790826 0.204349
vt 0.191577 0.547317
vt 0.731907 0.210932
vt 0.726520 0.204786
vt 0.738376 0.273252
vt 0.758016 0.249120
vt 0.778969 0.226979
vt 0.730972 0.285693
vt 0.778927 0.276872
vt 0.785438 0.289300
vt 0.738418 0.223360
vt 0.726520 0.295882
vt 0.173360 0.547317
vt 0.169350 0.543308
vt 0.173360 0.543308
vt 0.200086 0.543308
vt 0.200086 0.547317
vt 0.414079 0.139308
vt 0.394942 0.133318
vt 0.423683 0.133318
vt 0.394942 0.152851
vt 0.423683 0.139308
vt 0.423683 0.152851
vt 0.394942 0.139308
vt 0.385338 0.152851
vt 0.385338 0.139308
vt 0.169350 0.547317
s 0
usemtl Material
f 2/1/1 3/2/1 1/3/1
f 10/4/2 7/5/2 9/6/2
f 21/7/3 27/8/3 31/9/3
f 11/10/4 17/11/4 9/12/4
f 7/13/5 11/6/5 9/4/5
f 9/12/4 19/14/4 10/15/4
f 10/4/6 6/5/6 8/13/6
f 1/3/7 15/16/7 2/1/7
f 6/13/8 11/6/8 5/5/8
f 4/17/9 13/18/9 3/2/9
f 18/19/8 14/20/8 20/21/8
f 19/14/10 15/16/10 18/19/10
f 17/11/11 14/20/11 13/18/11
f 16/22/2 17/11/2 13/18/2
f 4/17/12 15/16/12 16/22/12
f 3/2/13 14/20/13 1/3/13
f 12/23/4 20/21/4 11/10/4
f 10/15/4 18/19/4 12/23/4
f 21/24/4 23/25/4 22/26/4
f 8/13/2 22/27/2 7/5/2
f 5/5/8 24/28/8 6/13/8
f 23/29/14 25/30/14 29/31/14
f 27/32/10 32/33/10 31/34/10
f 26/32/11 29/33/11 25/35/11
f 8/36/15 28/35/15 27/32/15
f 22/7/16 29/33/16 30/34/16
f 22/29/17 26/30/17 7/37/17
f 24/7/18 28/8/18 6/36/18
f 7/36/19 25/35/19 5/37/19
f 21/7/20 32/33/20 24/29/20
f 2/1/1 4/17/1 3/2/1
f 10/4/2 8/13/2 7/5/2
f 21/7/3 8/36/3 27/8/3
f 11/10/4 20/21/4 17/11/4
f 7/13/5 5/5/5 11/6/5
f 9/12/4 17/11/4 19/14/4
f 10/4/6 12/6/6 6/5/6
f 1/3/7 14/20/7 15/16/7
f 6/13/8 12/4/8 11/6/8
f 4/17/9 16/22/9 13/18/9
f 18/19/8 15/16/8 14/20/8
f 19/14/10 16/22/10 15/16/10
f 17/11/11 20/21/11 14/20/11
f 16/22/2 19/14/2 17/11/2
f 4/17/12 2/1/12 15/16/12
f 3/2/13 13/18/13 14/20/13
f 12/23/4 18/19/4 20/21/4
f 10/15/4 19/14/4 18/19/4
f 21/24/4 24/38/4 23/25/4
f 8/13/2 21/28/2 22/27/2
f 5/5/8 23/27/8 24/28/8
f 23/29/14 5/37/14 25/30/14
f 27/32/10 28/35/10 32/33/10
f 26/32/11 30/34/11 29/33/11
f 8/36/15 6/37/15 28/35/15
f 22/7/16 23/29/16 29/33/16
f 22/29/17 30/31/17 26/30/17
f 24/7/18 32/9/18 28/8/18
f 7/36/19 26/32/19 25/35/19
f 21/7/20 31/34/20 32/33/20
