{
	"asset":{
		"generator":"Khronos glTF Blender I/O v5.0.21",
		"version":"2.0"
	},
	"scene":0,
	"scenes":[
		{
			"name":"Scene",
			"nodes":[
				0
			]
		}
	],
	"nodes":[
		{
			"mesh":0,
			"name":"Rusty Shiv",
			"scale":[
				0.5868422985076904,
				0.5868422985076904,
				0.5868422985076904
			]
		}
	],
	"materials":[
		{
			"doubleSided":true,
			"name":"Material",
			"pbrMetallicRoughness":{
				"baseColorTexture":{
					"index":0
				},
				"metallicFactor":0
			}
		}
	],
	"meshes":[
		{
			"name":"Cylinder",
			"primitives":[
				{
					"attributes":{
						"POSITION":0,
						"NORMAL":1,
						"TEXCOORD_0":2
					},
					"indices":3,
					"material":0
				}
			]
		}
	],
	"textures":[
		{
			"sampler":0,
			"source":0
		}
	],
	"images":[
		{
			"mimeType":"image/png",
			"name":"T_Goblin",
			"uri":"T_Goblin.png"
		}
	],
	"accessors":[
		{
			"bufferView":0,
			"componentType":5126,
			"count":134,
			"max":[
				0.24935001134872437,
				0.6269705295562744,
				0.10059269517660141
			],
			"min":[
				-0.24935001134872437,
				-0.19823719561100006,
				-0.10059269517660141
			],
			"type":"VEC3"
		},
		{
			"bufferView":1,
			"componentType":5126,
			"count":134,
			"type":"VEC3"
		},
		{
			"bufferView":2,
			"componentType":5126,
			"count":134,
			"type":"VEC2"
		},
		{
			"bufferView":3,
			"componentType":5123,
			"count":168,
			"type":"SCALAR"
		}
	],
	"bufferViews":[
		{
			"buffer":0,
			"byteLength":1608,
			"byteOffset":0,
			"target":34962
		},
		{
			"buffer":0,
			"byteLength":1608,
			"byteOffset":1608,
			"target":34962
		},
		{
			"buffer":0,
			"byteLength":1072,
			"byteOffset":3216,
			"target":34962
		},
		{
			"buffer":0,
			"byteLength":336,
			"byteOffset":4288,
			"target":34963
		}
	],
	"samplers":[
		{
			"magFilter":9729,
			"minFilter":9987
		}
	],
	"buffers":[
		{
			"byteLength":4624,
			"uri":"Goblin_Rusty_Shiv.bin"
		}
	]
}
