{
	"asset":{
		"generator":"Khronos glTF Blender I/O v5.0.21",
		"version":"2.0"
	},
	"scene":0,
	"scenes":[
		{
			"name":"Scene",
			"nodes":[
				3
			]
		}
	],
	"nodes":[
		{
			"name":"rope Bone",
			"rotation":[
				-0.5,
				-0.5,
				-0.5,
				0.5
			],
			"scale":[
				1,
				0.9999999403953552,
				1
			],
			"translation":[
				0.09094935655593872,
				-5.960464477539063e-08,
				0
			]
		},
		{
			"children":[
				0
			],
			"name":"Wood Bone",
			"rotation":[
				0,
				0.7071067690849304,
				0,
				0.7071067690849304
			],
			"scale":[
				1,
				0.9999999403953552,
				1
			]
		},
		{
			"mesh":0,
			"name":"Bow",
			"skin":0
		},
		{
			"children":[
				2,
				1
			],
			"name":"Bow_Armature"
		}
	],
	"materials":[
		{
			"doubleSided":true,
			"name":"Material",
			"pbrMetallicRoughness":{
				"baseColorTexture":{
					"index":0
				},
				"metallicFactor":0
			}
		}
	],
	"meshes":[
		{
			"name":"Cube.001",
			"primitives":[
				{
					"attributes":{
						"POSITION":0,
						"NORMAL":1,
						"TEXCOORD_0":2,
						"JOINTS_0":3,
						"WEIGHTS_0":4
					},
					"indices":5,
					"material":0
				}
			]
		}
	],
	"textures":[
		{
			"sampler":0,
			"source":0
		}
	],
	"images":[
		{
			"mimeType":"image/png",
			"name":"T_Goblin",
			"uri":"T_Goblin.png"
		}
	],
	"skins":[
		{
			"inverseBindMatrices":6,
			"joints":[
				1,
				0
			],
			"name":"Bow_Armature"
		}
	],
	"accessors":[
		{
			"bufferView":0,
			"componentType":5126,
			"count":400,
			"max":[
				0.028307689353823662,
				0.4241821765899658,
				0.040863946080207825
			],
			"min":[
				-0.028307689353823662,
				-0.4241821765899658,
				-0.1369078904390335
			],
			"type":"VEC3"
		},
		{
			"bufferView":1,
			"componentType":5126,
			"count":400,
			"type":"VEC3"
		},
		{
			"bufferView":2,
			"componentType":5126,
			"count":400,
			"type":"VEC2"
		},
		{
			"bufferView":3,
			"componentType":5121,
			"count":400,
			"type":"VEC4"
		},
		{
			"bufferView":4,
			"componentType":5126,
			"count":400,
			"type":"VEC4"
		},
		{
			"bufferView":5,
			"componentType":5123,
			"count":624,
			"type":"SCALAR"
		},
		{
			"bufferView":6,
			"componentType":5126,
			"count":2,
			"type":"MAT4"
		}
	],
	"bufferViews":[
		{
			"buffer":0,
			"byteLength":4800,
			"byteOffset":0,
			"target":34962
		},
		{
			"buffer":0,
			"byteLength":4800,
			"byteOffset":4800,
			"target":34962
		},
		{
			"buffer":0,
			"byteLength":3200,
			"byteOffset":9600,
			"target":34962
		},
		{
			"buffer":0,
			"byteLength":1600,
			"byteOffset":12800,
			"target":34962
		},
		{
			"buffer":0,
			"byteLength":6400,
			"byteOffset":14400,
			"target":34962
		},
		{
			"buffer":0,
			"byteLength":1248,
			"byteOffset":20800,
			"target":34963
		},
		{
			"buffer":0,
			"byteLength":128,
			"byteOffset":22048
		}
	],
	"samplers":[
		{
			"magFilter":9729,
			"minFilter":9987
		}
	],
	"buffers":[
		{
			"byteLength":22176,
			"uri":"Goblin_Recurve_Shortbow.bin"
		}
	]
}
